<mxfile host="app.diagrams.net" agent="Mozilla/5.0 (Windows NT 10.0; Win64; x64) AppleWebKit/537.36 (KHTML, like Gecko) Chrome/128.0.0.0 YaBrowser/24.10.0.0 Safari/537.36" version="24.8.6">
  <diagram name="Диаграмма классов для сущности Самолёт" id="RGN3JP7NvYSf_fKN65j1">
    <mxGraphModel dx="2079" dy="507" grid="1" gridSize="10" guides="1" tooltips="1" connect="1" arrows="1" fold="1" page="1" pageScale="1" pageWidth="1169" pageHeight="1654" math="0" shadow="0">
      <root>
        <mxCell id="0" />
        <mxCell id="1" parent="0" />
        <mxCell id="iZ7ml_lLl1dWOAEYgKRQ-1" value="" style="rounded=0;whiteSpace=wrap;html=1;" vertex="1" parent="1">
          <mxGeometry x="160" y="60" width="140" height="160" as="geometry" />
        </mxCell>
        <mxCell id="iZ7ml_lLl1dWOAEYgKRQ-3" value="+ getDetails(): string&#xa;+ calculateRange(): float" style="text;html=1;strokeColor=none;fillColor=none;" vertex="1" parent="iZ7ml_lLl1dWOAEYgKRQ-1">
          <mxGeometry y="120" width="140" height="40" as="geometry" />
        </mxCell>
        <mxCell id="iZ7ml_lLl1dWOAEYgKRQ-16" value="&lt;span style=&quot;text-wrap: wrap;&quot;&gt;Aircraft&lt;/span&gt;" style="text;html=1;align=center;verticalAlign=middle;resizable=0;points=[];autosize=1;strokeColor=none;fillColor=none;" vertex="1" parent="iZ7ml_lLl1dWOAEYgKRQ-1">
          <mxGeometry x="40" width="60" height="30" as="geometry" />
        </mxCell>
        <mxCell id="iZ7ml_lLl1dWOAEYgKRQ-2" value="- id: int&#xa;- model: string&#xa;- manufacturer: string&#xa;- capacity: int&#xa;- range: float" style="text;html=1;strokeColor=none;fillColor=none;" vertex="1" parent="iZ7ml_lLl1dWOAEYgKRQ-1">
          <mxGeometry y="40" width="140" height="100" as="geometry" />
        </mxCell>
        <mxCell id="iZ7ml_lLl1dWOAEYgKRQ-17" value="" style="endArrow=none;html=1;rounded=0;entryX=0.999;entryY=0.849;entryDx=0;entryDy=0;entryPerimeter=0;" edge="1" parent="iZ7ml_lLl1dWOAEYgKRQ-1" target="iZ7ml_lLl1dWOAEYgKRQ-2">
          <mxGeometry width="50" height="50" relative="1" as="geometry">
            <mxPoint y="125" as="sourcePoint" />
            <mxPoint x="330" y="180" as="targetPoint" />
          </mxGeometry>
        </mxCell>
        <mxCell id="iZ7ml_lLl1dWOAEYgKRQ-18" value="" style="endArrow=none;html=1;rounded=0;exitX=0;exitY=0;exitDx=0;exitDy=0;entryX=1;entryY=0;entryDx=0;entryDy=0;" edge="1" parent="iZ7ml_lLl1dWOAEYgKRQ-1" source="iZ7ml_lLl1dWOAEYgKRQ-2" target="iZ7ml_lLl1dWOAEYgKRQ-2">
          <mxGeometry width="50" height="50" relative="1" as="geometry">
            <mxPoint x="280" y="230" as="sourcePoint" />
            <mxPoint x="330" y="180" as="targetPoint" />
          </mxGeometry>
        </mxCell>
        <mxCell id="iZ7ml_lLl1dWOAEYgKRQ-4" value="" style="rounded=0;whiteSpace=wrap;html=1;" vertex="1" parent="1">
          <mxGeometry x="-80" y="50" width="140" height="180" as="geometry" />
        </mxCell>
        <mxCell id="iZ7ml_lLl1dWOAEYgKRQ-6" value="+ getPassengerDetails():&amp;nbsp;&lt;div&gt;string&lt;br&gt;+ provideEntertainment():&lt;/div&gt;&lt;div&gt;&amp;nbsp;void&lt;/div&gt;" style="text;html=1;strokeColor=none;fillColor=none;" vertex="1" parent="iZ7ml_lLl1dWOAEYgKRQ-4">
          <mxGeometry y="113.14742857142858" width="140" height="51.42857142857143" as="geometry" />
        </mxCell>
        <mxCell id="iZ7ml_lLl1dWOAEYgKRQ-29" value="&lt;span style=&quot;text-wrap: wrap;&quot;&gt;PassengerAircraft&lt;/span&gt;" style="text;html=1;align=center;verticalAlign=middle;resizable=0;points=[];autosize=1;strokeColor=none;fillColor=none;" vertex="1" parent="iZ7ml_lLl1dWOAEYgKRQ-4">
          <mxGeometry x="10" width="120" height="30" as="geometry" />
        </mxCell>
        <mxCell id="iZ7ml_lLl1dWOAEYgKRQ-5" value="- numberOfPassengers:&lt;div&gt;&amp;nbsp;int&lt;br&gt;- inFlightEntertainment:&lt;/div&gt;&lt;div&gt;&amp;nbsp;bool&lt;/div&gt;" style="text;html=1;strokeColor=none;fillColor=none;" vertex="1" parent="iZ7ml_lLl1dWOAEYgKRQ-4">
          <mxGeometry y="36.00257142857143" width="140" height="77.14285714285714" as="geometry" />
        </mxCell>
        <mxCell id="iZ7ml_lLl1dWOAEYgKRQ-31" value="" style="endArrow=none;html=1;rounded=0;exitX=0;exitY=1;exitDx=0;exitDy=0;entryX=1;entryY=1;entryDx=0;entryDy=0;" edge="1" parent="iZ7ml_lLl1dWOAEYgKRQ-4" source="iZ7ml_lLl1dWOAEYgKRQ-5" target="iZ7ml_lLl1dWOAEYgKRQ-5">
          <mxGeometry width="50" height="50" relative="1" as="geometry">
            <mxPoint x="310" y="210" as="sourcePoint" />
            <mxPoint x="360" y="160" as="targetPoint" />
          </mxGeometry>
        </mxCell>
        <mxCell id="iZ7ml_lLl1dWOAEYgKRQ-32" value="" style="endArrow=none;html=1;rounded=0;exitX=0;exitY=0;exitDx=0;exitDy=0;entryX=1;entryY=0;entryDx=0;entryDy=0;" edge="1" parent="iZ7ml_lLl1dWOAEYgKRQ-4" source="iZ7ml_lLl1dWOAEYgKRQ-5" target="iZ7ml_lLl1dWOAEYgKRQ-5">
          <mxGeometry width="50" height="50" relative="1" as="geometry">
            <mxPoint x="310" y="210" as="sourcePoint" />
            <mxPoint x="360" y="160" as="targetPoint" />
          </mxGeometry>
        </mxCell>
        <mxCell id="iZ7ml_lLl1dWOAEYgKRQ-7" value="" style="rounded=0;whiteSpace=wrap;html=1;" vertex="1" parent="1">
          <mxGeometry x="155" y="290" width="150" height="150" as="geometry" />
        </mxCell>
        <mxCell id="iZ7ml_lLl1dWOAEYgKRQ-9" value="+ loadCargo(weight: float):&lt;div&gt;&amp;nbsp;void&lt;br&gt;+ unloadCargo(weight:&amp;nbsp;&lt;/div&gt;&lt;div&gt;float): void&lt;/div&gt;" style="text;html=1;strokeColor=none;fillColor=none;" vertex="1" parent="iZ7ml_lLl1dWOAEYgKRQ-7">
          <mxGeometry y="85.71428571428571" width="150" height="42.857142857142854" as="geometry" />
        </mxCell>
        <mxCell id="iZ7ml_lLl1dWOAEYgKRQ-24" value="&lt;span style=&quot;text-wrap: wrap;&quot;&gt;CargoAircraft&lt;/span&gt;" style="text;html=1;align=center;verticalAlign=middle;resizable=0;points=[];autosize=1;strokeColor=none;fillColor=none;" vertex="1" parent="iZ7ml_lLl1dWOAEYgKRQ-7">
          <mxGeometry x="26.785714285714285" width="90" height="30" as="geometry" />
        </mxCell>
        <mxCell id="iZ7ml_lLl1dWOAEYgKRQ-8" value="- cargoCapacity: float&#xa;- currentCargoWeight: float" style="text;html=1;strokeColor=none;fillColor=none;" vertex="1" parent="iZ7ml_lLl1dWOAEYgKRQ-7">
          <mxGeometry y="42.857142857142854" width="150" height="64.28571428571428" as="geometry" />
        </mxCell>
        <mxCell id="iZ7ml_lLl1dWOAEYgKRQ-27" value="" style="endArrow=none;html=1;rounded=0;exitX=0;exitY=0;exitDx=0;exitDy=0;entryX=1;entryY=0;entryDx=0;entryDy=0;" edge="1" parent="iZ7ml_lLl1dWOAEYgKRQ-7" source="iZ7ml_lLl1dWOAEYgKRQ-8" target="iZ7ml_lLl1dWOAEYgKRQ-8">
          <mxGeometry width="50" height="50" relative="1" as="geometry">
            <mxPoint x="75" y="-30" as="sourcePoint" />
            <mxPoint x="128.57142857142856" y="-80" as="targetPoint" />
          </mxGeometry>
        </mxCell>
        <mxCell id="iZ7ml_lLl1dWOAEYgKRQ-28" value="" style="endArrow=none;html=1;rounded=0;exitX=0;exitY=0.75;exitDx=0;exitDy=0;entryX=1;entryY=0.75;entryDx=0;entryDy=0;" edge="1" parent="iZ7ml_lLl1dWOAEYgKRQ-7" source="iZ7ml_lLl1dWOAEYgKRQ-8" target="iZ7ml_lLl1dWOAEYgKRQ-8">
          <mxGeometry width="50" height="50" relative="1" as="geometry">
            <mxPoint x="75" y="-30" as="sourcePoint" />
            <mxPoint x="128.57142857142856" y="-80" as="targetPoint" />
          </mxGeometry>
        </mxCell>
        <mxCell id="iZ7ml_lLl1dWOAEYgKRQ-10" value="" style="rounded=0;whiteSpace=wrap;html=1;" vertex="1" parent="1">
          <mxGeometry x="400" y="70" width="160" height="140" as="geometry" />
        </mxCell>
        <mxCell id="iZ7ml_lLl1dWOAEYgKRQ-12" value="+ getOwnerDetails(): string&lt;br&gt;+ upgradeLuxuryLevel(level:&lt;div&gt;&amp;nbsp;string): void&lt;/div&gt;" style="text;html=1;strokeColor=none;fillColor=none;" vertex="1" parent="iZ7ml_lLl1dWOAEYgKRQ-10">
          <mxGeometry y="80" width="160" height="40" as="geometry" />
        </mxCell>
        <mxCell id="iZ7ml_lLl1dWOAEYgKRQ-19" value="&lt;span style=&quot;text-wrap: wrap;&quot;&gt;PrivateJet&lt;/span&gt;" style="text;html=1;align=center;verticalAlign=middle;resizable=0;points=[];autosize=1;strokeColor=none;fillColor=none;" vertex="1" parent="iZ7ml_lLl1dWOAEYgKRQ-10">
          <mxGeometry x="34.285714285714285" y="10" width="80" height="30" as="geometry" />
        </mxCell>
        <mxCell id="iZ7ml_lLl1dWOAEYgKRQ-11" value="- owner: string&#xa;- luxuryLevel: string" style="text;html=1;strokeColor=none;fillColor=none;" vertex="1" parent="iZ7ml_lLl1dWOAEYgKRQ-10">
          <mxGeometry y="40" width="160" height="60" as="geometry" />
        </mxCell>
        <mxCell id="iZ7ml_lLl1dWOAEYgKRQ-20" value="" style="endArrow=none;html=1;rounded=0;entryX=1;entryY=0;entryDx=0;entryDy=0;exitX=0;exitY=0;exitDx=0;exitDy=0;" edge="1" parent="iZ7ml_lLl1dWOAEYgKRQ-10" source="iZ7ml_lLl1dWOAEYgKRQ-11" target="iZ7ml_lLl1dWOAEYgKRQ-11">
          <mxGeometry width="50" height="50" relative="1" as="geometry">
            <mxPoint x="-45.71428571428571" y="50" as="sourcePoint" />
            <mxPoint x="11.428571428571427" as="targetPoint" />
          </mxGeometry>
        </mxCell>
        <mxCell id="iZ7ml_lLl1dWOAEYgKRQ-21" value="" style="endArrow=none;html=1;rounded=0;entryX=1;entryY=0.75;entryDx=0;entryDy=0;exitX=0;exitY=0.75;exitDx=0;exitDy=0;" edge="1" parent="iZ7ml_lLl1dWOAEYgKRQ-10" source="iZ7ml_lLl1dWOAEYgKRQ-11" target="iZ7ml_lLl1dWOAEYgKRQ-11">
          <mxGeometry width="50" height="50" relative="1" as="geometry">
            <mxPoint x="-45.71428571428571" y="50" as="sourcePoint" />
            <mxPoint x="11.428571428571427" as="targetPoint" />
          </mxGeometry>
        </mxCell>
        <mxCell id="iZ7ml_lLl1dWOAEYgKRQ-13" style="endArrow=block;html=1;edgeStyle=orthogonalEdgeStyle;" edge="1" parent="1" source="iZ7ml_lLl1dWOAEYgKRQ-4" target="iZ7ml_lLl1dWOAEYgKRQ-1">
          <mxGeometry relative="1" as="geometry" />
        </mxCell>
        <mxCell id="iZ7ml_lLl1dWOAEYgKRQ-14" style="endArrow=block;html=1;edgeStyle=orthogonalEdgeStyle;" edge="1" parent="1" source="iZ7ml_lLl1dWOAEYgKRQ-7" target="iZ7ml_lLl1dWOAEYgKRQ-1">
          <mxGeometry relative="1" as="geometry" />
        </mxCell>
        <mxCell id="iZ7ml_lLl1dWOAEYgKRQ-26" style="edgeStyle=orthogonalEdgeStyle;rounded=0;orthogonalLoop=1;jettySize=auto;html=1;exitX=0;exitY=0.5;exitDx=0;exitDy=0;entryX=0.997;entryY=0.398;entryDx=0;entryDy=0;entryPerimeter=0;" edge="1" parent="1" source="iZ7ml_lLl1dWOAEYgKRQ-11" target="iZ7ml_lLl1dWOAEYgKRQ-2">
          <mxGeometry relative="1" as="geometry" />
        </mxCell>
      </root>
    </mxGraphModel>
  </diagram>
</mxfile>
